  REM DATE 1977
  PERFORMER "Meat Loaf"
    TITLE "Bat Out Of Hell"
FILE "Side 1.flac" WAVE
  TRACK 01 AUDIO
    TITLE "1.1 Bat Out Of Hell"
    INDEX 01 00:00:00
  TRACK 02  AUDIO
    TITLE "1.2 You Took The Words Right Out Of My Mouth (Hot Summer Night)"
    INDEX 01 09:52:00
  TRACK 03 AUDIO
    TITLE "1.3 Heaven Can Wait"
    INDEX 01 14:57:00
  TRACK 04 AUDIO
    TITLE "1.4 All Revved Up With No Place To Go"
    INDEX 01 19:39:00
FILE "Side 2.flac" WAVE
  TRACK 05 AUDIO
    TITLE "2.1 Two Out Of Three Ain't Bad"
    INDEX 01 00:00:00
  TRACK 06 AUDIO
    TITLE "2.2 Paradise By The Dashboard Light"
    INDEX 01 05:24:00
  TRACK 07 AUDIO
    TITLE "2.3 For Crying Out Loud"
    INDEX 01 13:49:00
  